<?xml version="1.0" encoding="utf-8"?>
<!-- Generator: Adobe Illustrator 22.0.1, SVG Export Plug-In . SVG Version: 6.00 Build 0)  -->
<svg version="1.1" id="Layer_1" xmlns="http://www.w3.org/2000/svg" xmlns:xlink="http://www.w3.org/1999/xlink" x="0px" y="0px"
	 viewBox="0 0 547.1 425.5" style="enable-background:new 0 0 547.1 425.5;" xml:space="preserve">
<style type="text/css">
	.st0{fill:#F15A24;}
</style>
<path d="M530.4,181.9L327.6,11.1l-0.2-0.2c-3.6-3-7.9-4.6-12.5-4.6c-11.2,0-20.3,9.2-20.3,20.5v353.4H48.9V48.7h187.5v242.9h-28.5
	V122.7c0-19.7-11.3-31-31-31h-68.5c-19.4,0-30.5,11.3-30.5,31v47.8c0,4.4,3.6,8,8,8h39.6c4.4,0,8-3.6,8-8v-27.8h17V184h-44.1
	c-19.7,0-31,11.3-31,31v89.5c0,19.4,11.3,30.5,31,30.5h142.4c19.7,0,31-11.3,31-31V37.3c0-19.7-11.3-31-31-31H36.6
	c-19.7,0-31,11.3-31,31v354c0,19.7,11.3,31,31,31h277.7c0.1,0,0.2,0,0.3,0c0.1,0,0.2,0,0.3,0c4.6,0,8.9-1.6,12.5-4.6l0.2-0.2
	l202.8-170.8c10.1-8.5,15.7-20.1,15.7-32.4C546.1,202,540.5,190.5,530.4,181.9z M150.5,292.3h-18v-52.5h18V292.3z"/>
<path class="st0" d="M525.2,188L322.4,17.2c-0.1,0-0.1-0.1-0.2-0.1c-7.9-6.5-19.7-0.6-19.7,9.8v361.4H40.9V40.7h203.5v258.9h-44.5
	V122.7c0-15.3-7.7-23-23-23h-68.5c-15,0-22.5,7.7-22.5,23v47.8h39.6v-35.8h33V192h-52.1c-15.3,0-23,7.7-23,23v89.5
	c0,15,7.7,22.5,23,22.5h142.4c15.3,0,23-7.7,23-23V37.3c0-15.3-7.7-23-23-23H36.6c-15.3,0-23,7.7-23,23v354c0,15.3,7.7,23,23,23
	h277.7v0c2.7,0.1,5.5-0.7,8-2.7c0.1,0,0.1-0.1,0.2-0.1l202.8-170.8C542.4,226.2,542.4,202.5,525.2,188z M158.5,300.3h-34v-68.5h34
	V300.3z M469.1,264l-115.6,97.4c-4.1,3.5-10.3,3-13.8-1.2l-4.1-4.9c-3.5-4.1-3-10.3,1.2-13.8l115.6-97.4c4.1-3.5,10.3-3,13.8,1.2
	l4.1,4.9C473.8,254.3,473.3,260.5,469.1,264z M470.3,183.5l-4.1,4.9c-3.5,4.1-9.7,4.7-13.8,1.2L336.8,92.1
	c-4.1-3.5-4.7-9.7-1.2-13.8l4.1-4.9c3.5-4.1,9.7-4.7,13.8-1.2l115.6,97.4C473.3,173.1,473.8,179.3,470.3,183.5z"/>
<g>
	<path d="M1695.5,1146.5h-235.1c-15.3,0-23-7.7-23-23v-354c0-15.3,7.7-23,23-23h212.1c15.3,0,23,7.7,23,23v266.6
		c0,15.3-7.7,23-23,23h-142.4c-15.3,0-23-7.5-23-22.5v-89.5c0-15.3,7.7-23,23-23h52.1v-57.3h-33v35.8h-39.6v-47.8
		c0-15.3,7.5-23,22.5-23h68.5c15.3,0,23,7.7,23,23v176.9h44.5V772.8h-203.5v347.6h230.8V1146.5z M1582.3,1025.6v-68.5h-34v68.5
		H1582.3z"/>
</g>
</svg>
